<?xml version="1.0" encoding="UTF-8" standalone="no"?><!DOCTYPE svg PUBLIC "-//W3C//DTD SVG 1.1//EN" "http://www.w3.org/Graphics/SVG/1.1/DTD/svg11.dtd"><svg width="100%" height="100%" viewBox="0 0 80 66" version="1.1" xmlns="http://www.w3.org/2000/svg" xmlns:xlink="http://www.w3.org/1999/xlink" xml:space="preserve" xmlns:serif="http://www.serif.com/" style="fill-rule:evenodd;clip-rule:evenodd;stroke-linejoin:round;stroke-miterlimit:1.41421;"><rect x="44.552" y="0" width="5.748" height="11.971" style="fill:#fcc306;"/><rect x="44.552" y="53.153" width="5.748" height="11.971" style="fill:#fcc306;"/><rect x="68.024" y="29.688" width="11.976" height="5.747" style="fill:#fcc306;"/><path d="M60.214,48.954l5.99,10.37l-4.979,2.876l-5.99,-10.37l4.979,-2.876Z" style="fill:#fcc306;"/><path d="M74.197,13.788l2.876,4.98l-10.368,5.989l-2.877,-4.98l10.369,-5.989Z" style="fill:#fcc306;"/><path d="M66.701,40.368l10.373,5.983l-2.872,4.98l-10.373,-5.983l2.872,-4.98Z" style="fill:#fcc306;"/><path d="M61.22,2.923l4.983,2.874l-5.983,10.371l-4.983,-2.875l5.983,-10.37Z" style="fill:#fcc306;"/><path d="M47.426,39.253l-5.544,0l-2.122,0l-27.545,0c-3.564,0 -6.466,-2.9 -6.466,-6.464c0,-3.564 2.902,-6.464 6.466,-6.464c2.297,0 4.442,1.237 5.598,3.227l4.972,-2.884c-0.92,-1.585 -2.173,-2.915 -3.642,-3.924c1.017,-4.963 5.418,-8.706 10.678,-8.706c6.009,0 10.898,4.888 10.898,10.895c0,2.251 -0.683,4.415 -1.976,6.255l6.508,0c0.617,-1.522 1.003,-3.127 1.15,-4.777c0.338,-0.055 0.679,-0.086 1.025,-0.086c3.567,0 6.467,2.9 6.467,6.464c0,3.564 -2.9,6.464 -6.467,6.464m0,-18.674c-0.508,0 -1.013,0.035 -1.514,0.097c-1.886,-7.122 -8.384,-12.382 -16.091,-12.382c-7.708,0 -14.206,5.26 -16.092,12.382c-0.498,-0.065 -1.004,-0.097 -1.514,-0.097c-6.734,0 -12.215,5.477 -12.215,12.21c0,6.732 5.481,12.211 12.215,12.211l35.211,0c6.734,0 12.215,-5.479 12.215,-12.211c0,-6.733 -5.481,-12.21 -12.215,-12.21" style="fill:#b0b0af;fill-rule:nonzero;"/></svg>