<?xml version="1.0" encoding="iso-8859-1"?>
<svg version="1.1" id="Capa_1" xmlns="http://www.w3.org/2000/svg" xmlns:xlink="http://www.w3.org/1999/xlink" x="0px" y="0px"
	 viewBox="55 45 80 84" style="enable-background:new 55 45 80 84;" xml:space="preserve">

	<path style="fill:#fff;" d="M92.243,128.466c7.841,0,14.394-1.288,20.832-4.681l-1.872-5.035
		c-4.799,2.684-11.009,4.094-17.68,4.094c-17.325,0-30.084-12.054-30.084-31.612c0-23.76,16.044-38.873,35.123-38.873
		c18.145,0,28.33,12.175,28.33,29.153c0,13.585-6.66,21.545-12.641,21.43c-3.854-0.118-5.268-4.212-3.507-13.12l3.983-21.176
		c-3.046-1.41-7.498-2.462-12.533-2.462c-16.273,0-27.747,13.231-27.747,27.747c0,9.244,5.851,14.745,12.644,14.745
		c7.022,0,12.404-3.389,16.509-10.304h0.469c-0.358,7.151,3.976,10.304,8.668,10.304c11.005,0,20.832-10.304,20.832-27.854
		c0-19.555-13.693-33.845-34.074-33.845c-25.993,0-42.728,20.843-42.728,44.961C56.762,114.419,73.035,128.466,92.243,128.466z
		 M104.182,86.433c-1.288,7.258-7.498,15.926-14.29,15.926c-5.146,0-7.727-3.747-7.727-8.893c0-11.363,8.31-21.083,18.614-21.083
		c2.698,0,4.692,0.465,5.859,0.823L104.182,86.433z"/>
</svg>
