<?xml version="1.0" encoding="UTF-8" standalone="no"?><!DOCTYPE svg PUBLIC "-//W3C//DTD SVG 1.1//EN" "http://www.w3.org/Graphics/SVG/1.1/DTD/svg11.dtd"><svg width="100%" height="100%" viewBox="0 0 65 66" version="1.1" xmlns="http://www.w3.org/2000/svg" xmlns:xlink="http://www.w3.org/1999/xlink" xml:space="preserve" xmlns:serif="http://www.serif.com/" style="fill-rule:evenodd;clip-rule:evenodd;stroke-linejoin:round;stroke-miterlimit:1.41421;"><path d="M50.184,32.5c0,9.767 -7.917,17.684 -17.685,17.684c-9.765,0 -17.683,-7.917 -17.683,-17.684c0,-9.767 7.918,-17.683 17.683,-17.683c9.768,0 17.685,7.916 17.685,17.683" style="fill:#fcc306;fill-rule:nonzero;"/><rect x="29.632" y="0" width="5.735" height="11.949" style="fill:#fcc306;"/><path d="M18.733,2.92l5.974,10.346l-4.968,2.868l-5.973,-10.346l4.967,-2.868Z" style="fill:#fcc306;"/><path d="M45.261,48.867l5.973,10.346l-4.967,2.868l-5.973,-10.346l4.967,-2.868Z" style="fill:#fcc306;"/><path d="M51.734,40.293l10.346,5.973l-2.868,4.967l-10.346,-5.973l2.868,-4.967Z" style="fill:#fcc306;"/><rect x="0" y="29.633" width="11.949" height="5.735" style="fill:#fcc306;"/><rect x="53.052" y="29.633" width="11.948" height="5.735" style="fill:#fcc306;"/><path d="M13.266,40.293l2.867,4.969l-10.345,5.971l-2.868,-4.968l10.346,-5.972Z" style="fill:#fcc306;"/><path d="M59.212,13.766l2.868,4.968l-10.345,5.973l-2.869,-4.967l10.346,-5.974Z" style="fill:#fcc306;"/><path d="M46.267,2.92l4.967,2.868l-5.973,10.346l-4.968,-2.869l5.974,-10.345Z" style="fill:#fcc306;"/><path d="M19.74,48.867l4.969,2.87l-5.975,10.344l-4.969,-2.87l5.975,-10.344Z" style="fill:#fcc306;"/><rect x="29.632" y="53.052" width="5.735" height="11.949" style="fill:#fcc306;"/><path d="M5.788,13.766l10.345,5.974l-2.867,4.967l-10.346,-5.974l2.868,-4.967Z" style="fill:#fcc306;"/></svg>