<?xml version="1.0" encoding="UTF-8" standalone="no"?>
<!DOCTYPE svg PUBLIC "-//W3C//DTD SVG 1.1//EN" "http://www.w3.org/Graphics/SVG/1.1/DTD/svg11.dtd">
<svg width="100%" height="100%" viewBox="0 0 187 187" version="1.1" xmlns="http://www.w3.org/2000/svg" xmlns:xlink="http://www.w3.org/1999/xlink" xml:space="preserve" style="fill-rule:evenodd;clip-rule:evenodd;stroke-linejoin:round;stroke-miterlimit:1.41421;">
    <g transform="matrix(-1,0,0,1,186.623,0)">
        <g>
            <path  style="fill:#fff;" d="M186.283,180.185C170.253,145.284 168.84,143.874 168.306,143.334L27.357,3.321C24.437,0.401 19.677,0.401 16.756,3.321L2.19,17.891C-0.73,20.811 -0.73,25.564 2.19,28.488L143.136,168.507C143.737,169.101 145.147,170.504 181.469,185.22C182.89,185.793 184.525,185.445 185.578,184.336C186.651,183.23 186.92,181.584 186.283,180.185ZM7.483,23.195L22.049,8.622L38.404,24.981L23.849,39.55L7.483,23.195ZM29.146,44.85L43.712,30.281L160.357,145.989L145.795,160.551L29.146,44.85ZM152.123,164.831L164.771,152.173C167.194,157.019 171.27,165.64 175.475,174.695C166.127,170.848 157.18,167.09 152.123,164.831Z"/>
        </g>
    </g>
</svg>
